<mxfile host="app.diagrams.net" modified="2024-05-29T20:35:38.131Z" agent="Mozilla/5.0 (Windows NT 10.0; Win64; x64) AppleWebKit/537.36 (KHTML, like Gecko) Chrome/125.0.0.0 Safari/537.36" version="21.6.6" etag="h31Q5MOVWFgKcNI9tZIe" type="github">
  <diagram name="Страница 1" id="F-iXTRAS4fhZHnHLxyhW">
    <mxGraphModel>
      <root>
        <mxCell id="0" />
        <mxCell id="1" parent="0" />
      </root>
    </mxGraphModel>
  </diagram>
</mxfile>
